<?xml version="1.0" encoding="UTF-8"?>
<svg version="1.1" xmlns="http://www.w3.org/2000/svg" width="256" height="256">
<path d="M0 0 C1.67687454 1.46758426 3.34404902 2.94634671 5 4.4375 C5.81339844 5.10910156 6.62679687 5.78070313 7.46484375 6.47265625 C29.91653123 25.44841107 43.72108622 54.0314091 46.80517578 83.09375 C48.85416689 107.74326707 44.79829916 132.9895166 32 154.4375 C31.01 154.4375 30.02 154.4375 29 154.4375 C27.52734375 152.86328125 27.52734375 152.86328125 25.9375 150.75 C20.78853566 144.57124279 13.59288475 140.99044322 5.58984375 140.19921875 C-3.85015936 139.9350655 -11.49159102 142.0237516 -18.875 148.0625 C-25.48444228 154.38766519 -29.05769449 162.39405575 -29.3125 171.5 C-29.15066692 182.54878605 -24.7108603 189.83747342 -17 197.4375 C-15.99947204 198.43697176 -14.99938149 199.43688187 -14 200.4375 C-19.47805433 204.14131603 -24.90386339 206.84198951 -31.125 209.0625 C-32.36407104 209.51133545 -32.36407104 209.51133545 -33.62817383 209.96923828 C-63.60518688 220.54049175 -96.68471157 218.56920705 -125.50488281 205.28271484 C-135.26384978 200.45009315 -143.89374962 194.73702883 -152 187.4375 C-153.22009766 186.43009766 -153.22009766 186.43009766 -154.46484375 185.40234375 C-176.91653123 166.42658893 -190.72108622 137.8435909 -193.80517578 108.78125 C-196.35022595 78.16410506 -188.90750366 46.69855168 -169.4375 22.4375 C-167.96991574 20.76062546 -166.49115329 19.09345098 -165 17.4375 C-164.32839844 16.62410156 -163.65679687 15.81070313 -162.96484375 14.97265625 C-143.98908893 -7.47903123 -115.4060909 -21.28358622 -86.34375 -24.36767578 C-55.72660506 -26.91272595 -24.26105168 -19.47000366 0 0 Z " fill="#000000" transform="translate(202,32.5625)"/>
<path d="M0 0 C14.19 0 28.38 0 43 0 C43 42.57 43 85.14 43 129 C28.81 129 14.62 129 0 129 C0 86.43 0 43.86 0 0 Z " fill="#FFFFFF" transform="translate(78,64)"/>
<path d="M0 0 C14.35833903 1.30530355 23.19313011 5.47804585 33 16 C46.47257165 32.261815 50.92216917 53.28948527 49 74 C46.82420834 92.02205213 39.6109601 107.83579929 26 120 C18.10617504 126.0251805 9.90461921 129 0 129 C0 86.43 0 43.86 0 0 Z " fill="#FFFFFF" transform="translate(144,64)"/>
</svg>
